<mxfile host="Electron" agent="Mozilla/5.0 (Windows NT 10.0; Win64; x64) AppleWebKit/537.36 (KHTML, like Gecko) draw.io/28.1.2 Chrome/138.0.7204.243 Electron/37.4.0 Safari/537.36" version="28.1.2">
  <diagram name="Page-1" id="c7488fd3-1785-93aa-aadb-54a6760d102a">
    <mxGraphModel dx="1042" dy="1476" grid="1" gridSize="10" guides="1" tooltips="1" connect="1" arrows="1" fold="1" page="1" pageScale="1" pageWidth="1100" pageHeight="850" background="none" math="0" shadow="0">
      <root>
        <mxCell id="0" />
        <mxCell id="1" parent="0" />
        <mxCell id="2b4e8129b02d487f-1" value="ACME Dispatcher" style="swimlane;html=1;childLayout=stackLayout;horizontal=1;startSize=20;horizontalStack=0;rounded=0;shadow=0;labelBackgroundColor=none;strokeWidth=1;fontFamily=Verdana;fontSize=8;align=center;fillColor=#f5f5f5;fontColor=#333333;strokeColor=#666666;" parent="1" vertex="1">
          <mxGeometry x="180" y="60" width="700" height="620" as="geometry">
            <mxRectangle x="180" y="70" width="60" height="20" as="alternateBounds" />
          </mxGeometry>
        </mxCell>
        <mxCell id="2b4e8129b02d487f-2" value="Initialize Apps" style="swimlane;html=1;startSize=20;horizontal=0;fillColor=#dae8fc;strokeColor=#6c8ebf;" parent="2b4e8129b02d487f-1" vertex="1">
          <mxGeometry y="20" width="700" height="150" as="geometry" />
        </mxCell>
        <mxCell id="2b4e8129b02d487f-18" style="edgeStyle=orthogonalEdgeStyle;rounded=0;html=1;labelBackgroundColor=none;startArrow=none;startFill=0;startSize=5;endArrow=classicThin;endFill=1;endSize=5;jettySize=auto;orthogonalLoop=1;strokeWidth=1;fontFamily=Verdana;fontSize=8" parent="2b4e8129b02d487f-2" source="2b4e8129b02d487f-5" target="2b4e8129b02d487f-6" edge="1">
          <mxGeometry relative="1" as="geometry" />
        </mxCell>
        <mxCell id="2b4e8129b02d487f-5" value="Start" style="ellipse;whiteSpace=wrap;html=1;rounded=0;shadow=0;labelBackgroundColor=none;strokeWidth=1;fontFamily=Verdana;fontSize=8;align=center;fillColor=#dae8fc;strokeColor=#6c8ebf;fontStyle=1" parent="2b4e8129b02d487f-2" vertex="1">
          <mxGeometry x="30" y="10" width="50" height="50" as="geometry" />
        </mxCell>
        <mxCell id="lynWyJ27UmlPL52xSpIG-3" style="edgeStyle=orthogonalEdgeStyle;rounded=0;orthogonalLoop=1;jettySize=auto;html=1;exitX=1;exitY=0.5;exitDx=0;exitDy=0;entryX=0;entryY=0.5;entryDx=0;entryDy=0;" parent="2b4e8129b02d487f-2" source="2b4e8129b02d487f-6" target="lynWyJ27UmlPL52xSpIG-2" edge="1">
          <mxGeometry relative="1" as="geometry" />
        </mxCell>
        <mxCell id="2b4e8129b02d487f-6" value="Launch ACME System 1" style="rounded=1;whiteSpace=wrap;html=1;shadow=0;labelBackgroundColor=none;strokeWidth=1;fontFamily=Verdana;fontSize=8;align=center;fillColor=#dae8fc;strokeColor=#6c8ebf;fontStyle=1" parent="2b4e8129b02d487f-2" vertex="1">
          <mxGeometry x="100" y="16.49999999999997" width="70" height="37" as="geometry" />
        </mxCell>
        <mxCell id="lynWyJ27UmlPL52xSpIG-4" value="NO" style="edgeStyle=orthogonalEdgeStyle;rounded=0;orthogonalLoop=1;jettySize=auto;html=1;exitX=0.5;exitY=1;exitDx=0;exitDy=0;entryX=0.5;entryY=0;entryDx=0;entryDy=0;fontStyle=1" parent="2b4e8129b02d487f-2" source="lynWyJ27UmlPL52xSpIG-2" target="lynWyJ27UmlPL52xSpIG-1" edge="1">
          <mxGeometry relative="1" as="geometry" />
        </mxCell>
        <mxCell id="lynWyJ27UmlPL52xSpIG-6" value="Yes" style="edgeStyle=orthogonalEdgeStyle;rounded=0;orthogonalLoop=1;jettySize=auto;html=1;exitX=1;exitY=0.5;exitDx=0;exitDy=0;entryX=0;entryY=0.5;entryDx=0;entryDy=0;fontStyle=1" parent="2b4e8129b02d487f-2" source="lynWyJ27UmlPL52xSpIG-2" target="lynWyJ27UmlPL52xSpIG-5" edge="1">
          <mxGeometry relative="1" as="geometry" />
        </mxCell>
        <mxCell id="lynWyJ27UmlPL52xSpIG-2" value="App&amp;nbsp;&lt;div&gt;Launched&amp;nbsp;&lt;/div&gt;&lt;div&gt;Success&lt;/div&gt;" style="rhombus;whiteSpace=wrap;html=1;fillColor=#e1d5e7;strokeColor=#9673a6;fontSize=7;fontStyle=1" parent="2b4e8129b02d487f-2" vertex="1">
          <mxGeometry x="190" y="5" width="60" height="60" as="geometry" />
        </mxCell>
        <mxCell id="lynWyJ27UmlPL52xSpIG-1" value="SE01" style="ellipse;whiteSpace=wrap;html=1;fontStyle=1;fillColor=#e51400;fontColor=#ffffff;strokeColor=#B20000;" parent="2b4e8129b02d487f-2" vertex="1">
          <mxGeometry x="195" y="110" width="50" height="30" as="geometry" />
        </mxCell>
        <mxCell id="lynWyJ27UmlPL52xSpIG-8" style="edgeStyle=orthogonalEdgeStyle;rounded=0;orthogonalLoop=1;jettySize=auto;html=1;exitX=1;exitY=0.5;exitDx=0;exitDy=0;entryX=0;entryY=0.5;entryDx=0;entryDy=0;" parent="2b4e8129b02d487f-2" source="lynWyJ27UmlPL52xSpIG-5" target="lynWyJ27UmlPL52xSpIG-7" edge="1">
          <mxGeometry relative="1" as="geometry" />
        </mxCell>
        <mxCell id="lynWyJ27UmlPL52xSpIG-5" value="Login ACME system 1" style="rounded=1;whiteSpace=wrap;html=1;shadow=0;labelBackgroundColor=none;strokeWidth=1;fontFamily=Verdana;fontSize=8;align=center;fillColor=#dae8fc;strokeColor=#6c8ebf;fontStyle=1" parent="2b4e8129b02d487f-2" vertex="1">
          <mxGeometry x="300" y="16.5" width="70" height="37" as="geometry" />
        </mxCell>
        <mxCell id="lynWyJ27UmlPL52xSpIG-11" value="No" style="edgeStyle=orthogonalEdgeStyle;rounded=0;orthogonalLoop=1;jettySize=auto;html=1;exitX=0.5;exitY=1;exitDx=0;exitDy=0;fontStyle=1" parent="2b4e8129b02d487f-2" source="lynWyJ27UmlPL52xSpIG-7" target="lynWyJ27UmlPL52xSpIG-9" edge="1">
          <mxGeometry relative="1" as="geometry" />
        </mxCell>
        <mxCell id="lynWyJ27UmlPL52xSpIG-13" value="Yes" style="edgeStyle=orthogonalEdgeStyle;rounded=0;orthogonalLoop=1;jettySize=auto;html=1;exitX=1;exitY=0.5;exitDx=0;exitDy=0;entryX=0;entryY=0.5;entryDx=0;entryDy=0;fontStyle=1" parent="2b4e8129b02d487f-2" source="lynWyJ27UmlPL52xSpIG-7" edge="1">
          <mxGeometry relative="1" as="geometry">
            <mxPoint x="520" y="35" as="targetPoint" />
          </mxGeometry>
        </mxCell>
        <mxCell id="lynWyJ27UmlPL52xSpIG-7" value="Login&amp;nbsp;&lt;div&gt;Success&lt;/div&gt;" style="rhombus;whiteSpace=wrap;html=1;fillColor=#e1d5e7;strokeColor=#9673a6;fontSize=7;fontStyle=1" parent="2b4e8129b02d487f-2" vertex="1">
          <mxGeometry x="400" y="5" width="60" height="60" as="geometry" />
        </mxCell>
        <mxCell id="lynWyJ27UmlPL52xSpIG-9" value="BE01" style="ellipse;whiteSpace=wrap;html=1;fontStyle=1;fillColor=#e51400;fontColor=#ffffff;strokeColor=#B20000;" parent="2b4e8129b02d487f-2" vertex="1">
          <mxGeometry x="405" y="110" width="50" height="30" as="geometry" />
        </mxCell>
        <mxCell id="lynWyJ27UmlPL52xSpIG-25" value="Extract Data" style="ellipse;whiteSpace=wrap;html=1;rounded=0;shadow=0;labelBackgroundColor=none;strokeWidth=1;fontFamily=Verdana;fontSize=8;align=center;fillColor=#d5e8d4;strokeColor=#82b366;fontStyle=1" parent="2b4e8129b02d487f-2" vertex="1">
          <mxGeometry x="520" y="10" width="50" height="50" as="geometry" />
        </mxCell>
        <mxCell id="2b4e8129b02d487f-3" value="Extract Data" style="swimlane;html=1;startSize=20;horizontal=0;fillColor=#d5e8d4;strokeColor=#82b366;" parent="2b4e8129b02d487f-1" vertex="1">
          <mxGeometry y="170" width="700" height="150" as="geometry" />
        </mxCell>
        <mxCell id="lynWyJ27UmlPL52xSpIG-29" style="edgeStyle=orthogonalEdgeStyle;rounded=0;orthogonalLoop=1;jettySize=auto;html=1;exitX=1;exitY=0.5;exitDx=0;exitDy=0;entryX=0;entryY=0.5;entryDx=0;entryDy=0;" parent="2b4e8129b02d487f-3" source="lynWyJ27UmlPL52xSpIG-27" target="lynWyJ27UmlPL52xSpIG-28" edge="1">
          <mxGeometry relative="1" as="geometry" />
        </mxCell>
        <mxCell id="lynWyJ27UmlPL52xSpIG-27" value="Initialize Appd" style="ellipse;whiteSpace=wrap;html=1;rounded=0;shadow=0;labelBackgroundColor=none;strokeWidth=1;fontFamily=Verdana;fontSize=8;align=center;fillColor=#dae8fc;strokeColor=#6c8ebf;fontStyle=1" parent="2b4e8129b02d487f-3" vertex="1">
          <mxGeometry x="30" y="20" width="50" height="50" as="geometry" />
        </mxCell>
        <mxCell id="lynWyJ27UmlPL52xSpIG-32" style="edgeStyle=orthogonalEdgeStyle;rounded=0;orthogonalLoop=1;jettySize=auto;html=1;exitX=1;exitY=0.5;exitDx=0;exitDy=0;entryX=0;entryY=0.5;entryDx=0;entryDy=0;" parent="2b4e8129b02d487f-3" source="lynWyJ27UmlPL52xSpIG-28" target="lynWyJ27UmlPL52xSpIG-35" edge="1">
          <mxGeometry relative="1" as="geometry">
            <mxPoint x="230" y="45" as="targetPoint" />
          </mxGeometry>
        </mxCell>
        <mxCell id="lynWyJ27UmlPL52xSpIG-28" value="Click Work Items" style="rounded=1;whiteSpace=wrap;html=1;shadow=0;labelBackgroundColor=none;strokeWidth=1;fontFamily=Verdana;fontSize=8;align=center;fillColor=#d5e8d4;strokeColor=#82b366;fontStyle=1" parent="2b4e8129b02d487f-3" vertex="1">
          <mxGeometry x="120" y="26.5" width="70" height="37" as="geometry" />
        </mxCell>
        <mxCell id="lynWyJ27UmlPL52xSpIG-38" style="edgeStyle=orthogonalEdgeStyle;rounded=0;orthogonalLoop=1;jettySize=auto;html=1;exitX=1;exitY=0.5;exitDx=0;exitDy=0;entryX=0;entryY=0.5;entryDx=0;entryDy=0;" parent="2b4e8129b02d487f-3" source="lynWyJ27UmlPL52xSpIG-35" edge="1">
          <mxGeometry relative="1" as="geometry">
            <mxPoint x="460" y="45" as="targetPoint" />
          </mxGeometry>
        </mxCell>
        <mxCell id="lynWyJ27UmlPL52xSpIG-35" value="Extract&amp;nbsp; Data" style="rounded=1;whiteSpace=wrap;html=1;shadow=0;labelBackgroundColor=none;strokeWidth=1;fontFamily=Verdana;fontSize=8;align=center;fillColor=#d5e8d4;strokeColor=#82b366;fontStyle=1" parent="2b4e8129b02d487f-3" vertex="1">
          <mxGeometry x="300" y="26.5" width="70" height="37" as="geometry" />
        </mxCell>
        <mxCell id="lynWyJ27UmlPL52xSpIG-40" style="edgeStyle=orthogonalEdgeStyle;rounded=0;orthogonalLoop=1;jettySize=auto;html=1;exitX=1;exitY=0.5;exitDx=0;exitDy=0;entryX=0;entryY=0.5;entryDx=0;entryDy=0;" parent="2b4e8129b02d487f-3" target="lynWyJ27UmlPL52xSpIG-39" edge="1">
          <mxGeometry relative="1" as="geometry">
            <mxPoint x="530" y="45" as="sourcePoint" />
          </mxGeometry>
        </mxCell>
        <mxCell id="lynWyJ27UmlPL52xSpIG-39" value="Dispatch Data to queue" style="ellipse;whiteSpace=wrap;html=1;rounded=0;shadow=0;labelBackgroundColor=none;strokeWidth=1;fontFamily=Verdana;fontSize=8;align=center;fillColor=#ffe6cc;strokeColor=#d79b00;fontStyle=1" parent="2b4e8129b02d487f-3" vertex="1">
          <mxGeometry x="590" y="15" width="60" height="60" as="geometry" />
        </mxCell>
        <mxCell id="GSp-Npbws65uHioVgP-B-2" value="Yes" style="edgeStyle=orthogonalEdgeStyle;rounded=0;orthogonalLoop=1;jettySize=auto;html=1;fontStyle=1" parent="2b4e8129b02d487f-3" source="GSp-Npbws65uHioVgP-B-1" target="lynWyJ27UmlPL52xSpIG-39" edge="1">
          <mxGeometry relative="1" as="geometry" />
        </mxCell>
        <mxCell id="GSp-Npbws65uHioVgP-B-4" value="No" style="edgeStyle=orthogonalEdgeStyle;rounded=0;orthogonalLoop=1;jettySize=auto;html=1;exitX=0.5;exitY=1;exitDx=0;exitDy=0;entryX=0.5;entryY=0;entryDx=0;entryDy=0;fontStyle=1" parent="2b4e8129b02d487f-3" source="GSp-Npbws65uHioVgP-B-1" target="GSp-Npbws65uHioVgP-B-3" edge="1">
          <mxGeometry relative="1" as="geometry" />
        </mxCell>
        <mxCell id="GSp-Npbws65uHioVgP-B-1" value="Check for&lt;div&gt;&amp;nbsp;WI1 Data&lt;/div&gt;" style="rhombus;whiteSpace=wrap;html=1;fillColor=#e1d5e7;strokeColor=#9673a6;fontSize=7;fontStyle=1" parent="2b4e8129b02d487f-3" vertex="1">
          <mxGeometry x="460" y="15" width="60" height="60" as="geometry" />
        </mxCell>
        <mxCell id="GSp-Npbws65uHioVgP-B-3" value="BE02" style="ellipse;whiteSpace=wrap;html=1;fontStyle=1;fillColor=#e51400;fontColor=#ffffff;strokeColor=#B20000;" parent="2b4e8129b02d487f-3" vertex="1">
          <mxGeometry x="465" y="110" width="50" height="30" as="geometry" />
        </mxCell>
        <mxCell id="2b4e8129b02d487f-4" value="Dispatch Data to queue" style="swimlane;html=1;startSize=20;horizontal=0;fillColor=#ffe6cc;strokeColor=#d79b00;" parent="2b4e8129b02d487f-1" vertex="1">
          <mxGeometry y="320" width="700" height="180" as="geometry" />
        </mxCell>
        <mxCell id="lynWyJ27UmlPL52xSpIG-43" style="edgeStyle=orthogonalEdgeStyle;rounded=0;orthogonalLoop=1;jettySize=auto;html=1;exitX=1;exitY=0.5;exitDx=0;exitDy=0;entryX=0;entryY=0.5;entryDx=0;entryDy=0;" parent="2b4e8129b02d487f-4" source="lynWyJ27UmlPL52xSpIG-41" target="lynWyJ27UmlPL52xSpIG-42" edge="1">
          <mxGeometry relative="1" as="geometry" />
        </mxCell>
        <mxCell id="lynWyJ27UmlPL52xSpIG-41" value="Extract Data" style="ellipse;whiteSpace=wrap;html=1;rounded=0;shadow=0;labelBackgroundColor=none;strokeWidth=1;fontFamily=Verdana;fontSize=8;align=center;fillColor=#d5e8d4;strokeColor=#82b366;fontStyle=1" parent="2b4e8129b02d487f-4" vertex="1">
          <mxGeometry x="40" y="70" width="60" height="60" as="geometry" />
        </mxCell>
        <mxCell id="1OjE62tyuyLLdJsUuW6--6" style="edgeStyle=orthogonalEdgeStyle;rounded=0;orthogonalLoop=1;jettySize=auto;html=1;exitX=1;exitY=0.5;exitDx=0;exitDy=0;entryX=0;entryY=0.5;entryDx=0;entryDy=0;" parent="2b4e8129b02d487f-4" source="lynWyJ27UmlPL52xSpIG-42" target="1OjE62tyuyLLdJsUuW6--5" edge="1">
          <mxGeometry relative="1" as="geometry" />
        </mxCell>
        <mxCell id="lynWyJ27UmlPL52xSpIG-42" value="Add Data to WI1 Queue" style="rounded=1;whiteSpace=wrap;html=1;shadow=0;labelBackgroundColor=none;strokeWidth=1;fontFamily=Verdana;fontSize=8;align=center;fillColor=#ffe6cc;strokeColor=#d79b00;fontStyle=1" parent="2b4e8129b02d487f-4" vertex="1">
          <mxGeometry x="150" y="71.5" width="175" height="58.5" as="geometry" />
        </mxCell>
        <mxCell id="1OjE62tyuyLLdJsUuW6--5" value="End&amp;nbsp;&lt;div&gt;Process&lt;/div&gt;" style="ellipse;whiteSpace=wrap;html=1;rounded=0;shadow=0;labelBackgroundColor=none;strokeWidth=1;fontFamily=Verdana;fontSize=8;align=center;fillColor=#f8cecc;strokeColor=#b85450;fontStyle=1" parent="2b4e8129b02d487f-4" vertex="1">
          <mxGeometry x="380" y="71.5" width="60" height="60" as="geometry" />
        </mxCell>
        <mxCell id="lynWyJ27UmlPL52xSpIG-44" value="" style="rounded=0;whiteSpace=wrap;html=1;" parent="1" vertex="1">
          <mxGeometry x="180" y="-30" width="490" height="80" as="geometry" />
        </mxCell>
        <mxCell id="lynWyJ27UmlPL52xSpIG-45" value="Color Map" style="rounded=0;whiteSpace=wrap;html=1;fontStyle=1" parent="1" vertex="1">
          <mxGeometry x="180" y="-60" width="120" height="30" as="geometry" />
        </mxCell>
        <mxCell id="lynWyJ27UmlPL52xSpIG-46" value="ACME 1" style="rounded=1;whiteSpace=wrap;html=1;fillColor=#dae8fc;strokeColor=#6c8ebf;fontStyle=1" parent="1" vertex="1">
          <mxGeometry x="190" y="-3" width="110" height="35" as="geometry" />
        </mxCell>
        <mxCell id="lynWyJ27UmlPL52xSpIG-47" value="ACME 1" style="rounded=1;whiteSpace=wrap;html=1;fillColor=#d5e8d4;strokeColor=#82b366;fontStyle=1" parent="1" vertex="1">
          <mxGeometry x="310" y="-3" width="60" height="35" as="geometry" />
        </mxCell>
        <mxCell id="lynWyJ27UmlPL52xSpIG-48" value="Queue" style="rounded=1;whiteSpace=wrap;html=1;fillColor=#ffe6cc;strokeColor=#d79b00;fontStyle=1" parent="1" vertex="1">
          <mxGeometry x="380" y="-3" width="80" height="35" as="geometry" />
        </mxCell>
        <mxCell id="1OjE62tyuyLLdJsUuW6--1" value="End Process" style="swimlane;html=1;startSize=20;horizontal=0;fillColor=#f8cecc;strokeColor=#b85450;" parent="1" vertex="1">
          <mxGeometry x="180" y="560" width="700" height="120" as="geometry" />
        </mxCell>
        <mxCell id="1OjE62tyuyLLdJsUuW6--2" style="edgeStyle=orthogonalEdgeStyle;rounded=0;orthogonalLoop=1;jettySize=auto;html=1;exitX=1;exitY=0.5;exitDx=0;exitDy=0;entryX=0;entryY=0.5;entryDx=0;entryDy=0;" parent="1OjE62tyuyLLdJsUuW6--1" source="1OjE62tyuyLLdJsUuW6--3" target="1OjE62tyuyLLdJsUuW6--4" edge="1">
          <mxGeometry relative="1" as="geometry" />
        </mxCell>
        <mxCell id="1OjE62tyuyLLdJsUuW6--3" value="Dispatcher" style="ellipse;whiteSpace=wrap;html=1;rounded=0;shadow=0;labelBackgroundColor=none;strokeWidth=1;fontFamily=Verdana;fontSize=8;align=center;fillColor=#ffe6cc;strokeColor=#d79b00;fontStyle=1" parent="1OjE62tyuyLLdJsUuW6--1" vertex="1">
          <mxGeometry x="40" y="30" width="60" height="60" as="geometry" />
        </mxCell>
        <mxCell id="1OjE62tyuyLLdJsUuW6--4" value="Close All&amp;nbsp; Apps" style="rounded=1;whiteSpace=wrap;html=1;shadow=0;labelBackgroundColor=none;strokeWidth=1;fontFamily=Verdana;fontSize=8;align=center;fillColor=#f8cecc;strokeColor=#b85450;fontStyle=1" parent="1OjE62tyuyLLdJsUuW6--1" vertex="1">
          <mxGeometry x="150" y="31.5" width="175" height="58.5" as="geometry" />
        </mxCell>
        <mxCell id="1OjE62tyuyLLdJsUuW6--7" value="End Process" style="rounded=1;whiteSpace=wrap;html=1;fillColor=#f8cecc;strokeColor=#b85450;fontStyle=1" parent="1" vertex="1">
          <mxGeometry x="470" y="-3" width="100" height="35" as="geometry" />
        </mxCell>
      </root>
    </mxGraphModel>
  </diagram>
</mxfile>
